<svg width="368" height="180" viewBox="0 0 368 180" fill="none" xmlns="http://www.w3.org/2000/svg">
<path d="M24.704 102.344C24.704 101.064 24.0213 99.9333 22.656 98.952C21.3333 97.928 19.2427 96.6693 16.384 95.176C13.056 93.512 10.5173 91.976 8.768 90.568C7.01867 89.16 6.144 87.496 6.144 85.576C6.144 84.04 6.76267 82.3973 8 80.648C9.28 78.8987 10.816 77.4267 12.608 76.232C14.4427 75.0373 16.1493 74.44 17.728 74.44C19.6053 74.44 21.8027 74.696 24.32 75.208C26.8373 75.6773 28.672 76.2107 29.824 76.808V86.536H27.712C26.2613 83.8053 24.6187 81.672 22.784 80.136C20.992 78.6 19.136 77.832 17.216 77.832C15.7653 77.832 14.6133 78.216 13.76 78.984C12.9067 79.752 12.48 80.6907 12.48 81.8C12.48 83.208 13.1627 84.4453 14.528 85.512C15.936 86.536 18.112 87.7947 21.056 89.288C23.232 90.3973 24.9813 91.3573 26.304 92.168C27.6267 92.936 28.736 93.8533 29.632 94.92C30.5707 95.9867 31.04 97.1813 31.04 98.504C31.04 100.083 30.3787 101.747 29.056 103.496C27.7333 105.203 26.1333 106.653 24.256 107.848C22.3787 109.043 20.6507 109.64 19.072 109.64C17.024 109.64 14.592 109.384 11.776 108.872C8.96 108.36 6.95467 107.827 5.76 107.272V97.672H7.872C9.36533 100.403 11.1573 102.515 13.248 104.008C15.3813 105.501 17.5147 106.248 19.648 106.248C21.1413 106.248 22.3573 105.864 23.296 105.096C24.2347 104.328 24.704 103.411 24.704 102.344ZM77.286 109.064H65.638V87.24C65.638 84.808 65.254 83.1227 64.486 82.184C63.718 81.2453 62.374 80.776 60.454 80.776C58.9607 80.776 57.4887 81.0533 56.038 81.608C54.63 82.12 52.9233 83.1867 50.918 84.808V104.52L56.678 106.824L55.526 109.064H38.182V107.4L43.878 102.984V62.728L38.182 58.696V57.032L48.806 53.128H50.918V82.12L60.006 74.952C60.902 74.6107 62.0327 74.44 63.398 74.44C66.2567 74.44 68.518 75.336 70.182 77.128C71.846 78.8773 72.678 81.2667 72.678 84.296V104.456L78.438 106.824L77.286 109.064ZM116.476 109H104.828V103.432L97.5955 109.128C96.7422 109.469 95.6755 109.64 94.3955 109.64C90.8115 109.64 88.2088 108.744 86.5875 106.952C85.0088 105.16 84.2195 103.005 84.2195 100.488C84.2195 98.952 84.7742 97.4587 85.8835 96.008C86.9928 94.5147 88.5928 93.1067 90.6835 91.784H104.828V87.112C104.828 84.2533 104.06 82.248 102.524 81.096C101.03 79.944 98.9608 79.368 96.3155 79.368C93.7128 79.368 90.5982 81.0533 86.9715 84.424L85.0515 82.248L94.3315 74.888C95.9955 74.5893 97.9582 74.44 100.22 74.44C103.889 74.44 106.748 75.3787 108.796 77.256C110.844 79.0907 111.868 81.7573 111.868 85.256V104.52L117.628 106.76L116.476 109ZM96.1875 104.84C98.8755 104.84 101.756 103.581 104.828 101.064V94.088H93.3075C92.6675 94.8133 92.2195 95.5387 91.9635 96.264C91.7502 96.9893 91.6435 97.8 91.6435 98.696C91.6435 100.36 92.0488 101.811 92.8595 103.048C93.7128 104.243 94.8222 104.84 96.1875 104.84ZM162.191 109.064H150.543V87.24C150.543 84.808 150.159 83.1227 149.391 82.184C148.623 81.2453 147.279 80.776 145.359 80.776C143.866 80.776 142.394 81.0533 140.943 81.608C139.535 82.12 137.828 83.1867 135.823 84.808V104.52L141.583 106.824L140.431 109.064H123.087V107.4L128.783 102.984V84.168L123.087 80.904V79.24L133.519 73.864L135.567 82.376L144.911 74.952C145.807 74.6107 146.938 74.44 148.303 74.44C151.162 74.44 153.423 75.336 155.087 77.128C156.751 78.8773 157.583 81.2667 157.583 84.296V104.456L163.343 106.824L162.191 109.064ZM176.583 86.856C177.777 86.856 178.737 87.304 179.463 88.2C180.231 89.096 180.615 90.2053 180.615 91.528C180.615 92.4667 180.337 93.3627 179.783 94.216C179.271 95.0267 178.588 95.688 177.735 96.2C176.924 96.6693 176.135 96.904 175.367 96.904C174.215 96.904 173.255 96.456 172.487 95.56C171.719 94.664 171.335 93.5547 171.335 92.232C171.335 91.2933 171.591 90.4187 172.103 89.608C172.657 88.7547 173.34 88.0933 174.151 87.624C175.004 87.112 175.815 86.856 176.583 86.856ZM208.123 109.128C207.227 109.469 206.139 109.64 204.859 109.64C201.403 109.64 198.886 108.723 197.307 106.888C195.728 105.011 194.939 102.131 194.939 98.248V79.304H188.027V76.872L199.867 62.856H201.979V77H213.499V79.304H201.979V99.272C201.979 102.813 203.643 104.584 206.971 104.584C207.867 104.584 208.72 104.392 209.531 104.008C210.384 103.624 211.43 102.899 212.667 101.832L214.587 104.008L208.123 109.128ZM236.681 109H219.337V107.336L225.033 102.92V83.464L219.337 79.432V77.768L229.961 73.864H232.073V104.456L237.833 106.76L236.681 109ZM228.233 54.728C229.428 54.728 230.388 55.176 231.113 56.072C231.881 56.968 232.265 58.0773 232.265 59.4C232.265 60.3387 231.988 61.2347 231.433 62.088C230.921 62.8987 230.238 63.56 229.385 64.072C228.574 64.5413 227.785 64.776 227.017 64.776C225.865 64.776 224.905 64.328 224.137 63.432C223.369 62.4933 222.985 61.3627 222.985 60.04C222.985 59.1013 223.241 58.2267 223.753 57.416C224.308 56.6053 224.99 55.9653 225.801 55.496C226.654 54.984 227.465 54.728 228.233 54.728Z" fill="black"/>
<path d="M3.84 144.64H6.16V145.36H1.92V126.736H6.16V127.456H3.84V144.64ZM8.87313 129.84V134.064H7.59313V129.84H8.87313ZM17.5476 139.168C17.5476 138.837 17.4143 138.528 17.1476 138.24C16.881 137.952 16.545 137.691 16.1396 137.456C15.745 137.211 15.2063 136.912 14.5236 136.56C13.713 136.133 13.0623 135.771 12.5716 135.472C12.081 135.163 11.6596 134.8 11.3076 134.384C10.9663 133.968 10.7956 133.509 10.7956 133.008C10.7956 132.475 11.0196 131.904 11.4676 131.296C11.9156 130.677 12.4596 130.16 13.0996 129.744C13.7503 129.317 14.3476 129.104 14.8916 129.104C15.553 129.104 16.321 129.184 17.1956 129.344C18.0703 129.504 18.7103 129.675 19.1156 129.856V132.96H18.5076C17.985 132.096 17.409 131.424 16.7796 130.944C16.161 130.464 15.5103 130.224 14.8276 130.224C14.2196 130.224 13.7343 130.416 13.3716 130.8C13.0196 131.173 12.8436 131.664 12.8436 132.272C12.8436 132.624 12.977 132.955 13.2436 133.264C13.521 133.563 13.857 133.829 14.2516 134.064C14.657 134.299 15.217 134.603 15.9316 134.976C16.721 135.371 17.361 135.723 17.8516 136.032C18.3423 136.331 18.753 136.683 19.0836 137.088C19.425 137.483 19.5956 137.931 19.5956 138.432C19.5956 138.965 19.3556 139.541 18.8756 140.16C18.3956 140.768 17.809 141.285 17.1156 141.712C16.433 142.128 15.809 142.336 15.2436 142.336C14.5503 142.336 13.7236 142.256 12.7636 142.096C11.8143 141.936 11.1316 141.765 10.7156 141.584V138.48H11.3236C11.8676 139.344 12.4863 140.016 13.1796 140.496C13.873 140.976 14.5876 141.216 15.3236 141.216C15.761 141.216 16.1503 141.12 16.4916 140.928C16.833 140.736 17.0943 140.485 17.2756 140.176C17.457 139.856 17.5476 139.52 17.5476 139.168ZM34.8628 142H29.9988V141.504L31.5028 140.32V136.096H25.1828V140.784L26.8628 141.36L26.5428 142H21.6788V141.504L23.1828 140.32V130.624L21.5188 130.064L21.8388 129.424H26.7028V129.92L25.1828 131.104V135.376H31.5028V130.624L29.8388 130.064L30.1588 129.424H35.0228V129.92L33.5028 131.104V140.784L35.1828 141.36L34.8628 142ZM38.4484 130.96C38.1604 130.96 37.9204 130.848 37.7284 130.624C37.547 130.4 37.4564 130.123 37.4564 129.792C37.4564 129.557 37.5204 129.339 37.6484 129.136C37.787 128.933 37.9577 128.773 38.1604 128.656C38.363 128.528 38.5604 128.464 38.7524 128.464C39.0404 128.464 39.275 128.576 39.4564 128.8C39.6484 129.024 39.7444 129.301 39.7444 129.632C39.7444 129.867 39.675 130.085 39.5364 130.288C39.4084 130.491 39.243 130.656 39.0404 130.784C38.8377 130.901 38.6404 130.96 38.4484 130.96ZM42.7684 130.96C42.4804 130.96 42.2404 130.848 42.0484 130.624C41.867 130.4 41.7764 130.123 41.7764 129.792C41.7764 129.557 41.8404 129.339 41.9684 129.136C42.107 128.933 42.2777 128.773 42.4804 128.656C42.683 128.528 42.8804 128.464 43.0724 128.464C43.3604 128.464 43.595 128.576 43.7764 128.8C43.9684 129.024 44.0644 129.301 44.0644 129.632C44.0644 129.867 43.995 130.085 43.8564 130.288C43.7284 130.491 43.563 130.656 43.3604 130.784C43.1577 130.901 42.9604 130.96 42.7684 130.96ZM45.2004 142H42.1604V140.608L40.3524 142.032C40.139 142.117 39.8724 142.16 39.5524 142.16C38.635 142.16 37.9684 141.931 37.5524 141.472C37.147 141.013 36.9444 140.464 36.9444 139.824C36.9444 139.44 37.083 139.061 37.3604 138.688C37.6377 138.315 38.0324 137.963 38.5444 137.632H42.1604V136.608C42.1604 135.915 41.9737 135.424 41.6004 135.136C41.2377 134.848 40.7364 134.704 40.0964 134.704C39.435 134.704 38.6244 135.104 37.6644 135.904L37.1844 135.296L39.4884 133.472C39.915 133.387 40.427 133.344 41.0244 133.344C41.995 133.344 42.747 133.584 43.2804 134.064C43.8137 134.533 44.0804 135.221 44.0804 136.128V140.8L45.5204 141.36L45.2004 142ZM40.0644 140.8C40.715 140.8 41.4137 140.501 42.1604 139.904V138.288H39.3284C39.1897 138.459 39.0884 138.629 39.0244 138.8C38.971 138.971 38.9444 139.157 38.9444 139.36C38.9444 139.755 39.0457 140.096 39.2484 140.384C39.451 140.661 39.723 140.8 40.0644 140.8ZM56.7059 142.016H53.6659V136.624C53.6659 136.037 53.5752 135.627 53.3939 135.392C53.2125 135.157 52.8872 135.04 52.4179 135.04C52.0659 135.04 51.7139 135.104 51.3619 135.232C51.0205 135.36 50.6152 135.605 50.1459 135.968V140.816L51.5859 141.376L51.2659 142.016H46.8019V141.52L48.2259 140.4V135.872L46.8019 135.04V134.544L49.5379 133.2L50.0659 135.28L52.3379 133.472C52.5619 133.387 52.8552 133.344 53.2179 133.344C53.9432 133.344 54.5192 133.568 54.9459 134.016C55.3725 134.453 55.5859 135.051 55.5859 135.808V140.8L57.0259 141.376L56.7059 142.016ZM64.7339 127.376C63.4539 128.315 62.4619 129.44 61.7579 130.752C61.0539 132.064 60.7019 133.664 60.7019 135.552C60.7019 137.483 61.0325 139.264 61.6939 140.896C62.3659 142.528 63.3739 143.808 64.7179 144.736L64.2859 145.36C63.1339 144.923 62.1259 144.272 61.2619 143.408C60.3979 142.555 59.7259 141.525 59.2459 140.32C58.7765 139.104 58.5419 137.771 58.5419 136.32C58.5419 132.544 60.4779 129.355 64.3499 126.752L64.7339 127.376ZM71.1275 142.032C70.8822 142.117 70.5835 142.16 70.2315 142.16C69.3462 142.16 68.6955 141.931 68.2795 141.472C67.8742 141.003 67.6715 140.283 67.6715 139.312V134.64H65.9435V133.984L68.9835 130.448H69.5915V133.984H72.4715V134.64H69.5915V139.504C69.5915 140.368 70.0075 140.8 70.8395 140.8C71.0635 140.8 71.2768 140.752 71.4795 140.656C71.6928 140.56 71.9542 140.389 72.2635 140.144L72.7435 140.752L71.1275 142.032ZM73.9444 144.736C75.2244 143.797 76.2164 142.672 76.9204 141.36C77.6244 140.048 77.9764 138.448 77.9764 136.56C77.9764 134.629 77.6404 132.848 76.9684 131.216C76.307 129.584 75.3044 128.304 73.9604 127.376L74.3924 126.752C75.5444 127.189 76.5524 127.84 77.4164 128.704C78.2804 129.557 78.947 130.592 79.4164 131.808C79.8964 133.013 80.1364 134.341 80.1364 135.792C80.1364 139.568 78.2004 142.757 74.3284 145.36L73.9444 144.736ZM87.586 142.032C87.1593 142.117 86.6473 142.16 86.05 142.16C85.346 142.16 84.7113 141.979 84.146 141.616C83.5913 141.243 83.154 140.741 82.834 140.112C82.5247 139.483 82.37 138.789 82.37 138.032C82.37 137.211 82.6207 136.443 83.122 135.728C83.6233 135.003 84.2473 134.427 84.994 134C85.7513 133.563 86.482 133.344 87.186 133.344C88.1993 133.344 88.9833 133.744 89.538 134.544C90.1033 135.344 90.386 136.4 90.386 137.712H84.466C84.53 138.619 84.7753 139.36 85.202 139.936C85.6393 140.512 86.2313 140.8 86.978 140.8C87.6713 140.8 88.658 140.261 89.938 139.184L90.418 139.792L87.586 142.032ZM86.258 134.688C85.106 134.688 84.5033 135.477 84.45 137.056H88.194C88.098 136.48 87.9967 136.043 87.89 135.744C87.794 135.435 87.618 135.184 87.362 134.992C87.1167 134.789 86.7487 134.688 86.258 134.688ZM83.058 129.296H89.746V130.016H83.058V129.296ZM94.6513 127.456H92.3313V126.736H96.5713V145.36H92.3313V144.64H94.6513V127.456Z" fill="black"/>
<path d="M2.774 172.5V171.798H3.98V161.952H2.63V161.25H4.574C4.574 161.526 4.58 161.802 4.592 162.078C4.616 162.342 4.628 162.606 4.628 162.87C4.832 162.402 5.186 161.994 5.69 161.646C6.194 161.298 6.806 161.124 7.526 161.124C8.006 161.124 8.462 161.214 8.894 161.394C9.326 161.574 9.704 161.826 10.028 162.15C10.352 162.474 10.604 162.852 10.784 163.284C10.964 163.704 11.054 164.154 11.054 164.634C11.054 165.114 10.964 165.57 10.784 166.002C10.604 166.434 10.352 166.806 10.028 167.118C9.704 167.43 9.326 167.682 8.894 167.874C8.462 168.054 8.006 168.144 7.526 168.144C7.166 168.144 6.83 168.096 6.518 168C6.206 167.916 5.93 167.79 5.69 167.622C5.438 167.466 5.228 167.298 5.06 167.118C4.904 166.926 4.784 166.722 4.7 166.506C4.7 166.626 4.7 166.746 4.7 166.866C4.712 166.974 4.718 167.082 4.718 167.19V171.798H6.248V172.5H2.774ZM7.526 161.844C7.118 161.844 6.74 161.916 6.392 162.06C6.056 162.204 5.762 162.402 5.51 162.654C5.258 162.906 5.06 163.206 4.916 163.554C4.784 163.89 4.718 164.25 4.718 164.634C4.718 165.03 4.79 165.402 4.934 165.75C5.078 166.086 5.282 166.386 5.546 166.65C5.798 166.89 6.092 167.082 6.428 167.226C6.764 167.358 7.13 167.424 7.526 167.424C7.898 167.424 8.252 167.358 8.588 167.226C8.924 167.082 9.218 166.89 9.47 166.65C9.734 166.398 9.938 166.098 10.082 165.75C10.238 165.402 10.316 165.03 10.316 164.634C10.316 164.226 10.238 163.848 10.082 163.5C9.938 163.152 9.734 162.852 9.47 162.6C9.218 162.372 8.924 162.192 8.588 162.06C8.252 161.916 7.898 161.844 7.526 161.844ZM15.8435 161.826C15.3875 161.826 14.9675 161.922 14.5835 162.114C14.2115 162.306 13.8995 162.564 13.6475 162.888C13.4075 163.2 13.2395 163.554 13.1435 163.95C13.0475 164.334 13.0415 164.73 13.1255 165.138C13.9415 164.814 14.7515 164.496 15.5555 164.184C16.3715 163.86 17.1875 163.536 18.0035 163.212C17.7875 162.804 17.4875 162.474 17.1035 162.222C16.7315 161.958 16.3115 161.826 15.8435 161.826ZM18.2015 167.19C17.8895 167.478 17.5355 167.706 17.1395 167.874C16.7435 168.042 16.3115 168.126 15.8435 168.126C15.3515 168.126 14.8895 168.036 14.4575 167.856C14.0375 167.676 13.6655 167.424 13.3415 167.1C13.0175 166.776 12.7655 166.404 12.5855 165.984C12.4055 165.564 12.3155 165.108 12.3155 164.616C12.3155 164.136 12.4055 163.68 12.5855 163.248C12.7655 162.816 13.0175 162.444 13.3415 162.132C13.6655 161.82 14.0375 161.574 14.4575 161.394C14.8895 161.202 15.3515 161.106 15.8435 161.106C16.2155 161.106 16.5695 161.172 16.9055 161.304C17.2415 161.424 17.5415 161.604 17.8055 161.844C18.0575 162.06 18.2795 162.324 18.4715 162.636C18.6635 162.936 18.8195 163.266 18.9395 163.626C18.0035 163.998 17.0675 164.364 16.1315 164.724C15.2075 165.084 14.2775 165.456 13.3415 165.84C13.5575 166.308 13.8875 166.686 14.3315 166.974C14.7755 167.262 15.2795 167.406 15.8435 167.406C16.2155 167.406 16.5635 167.34 16.8875 167.208C17.2115 167.076 17.4995 166.89 17.7515 166.65L18.2015 167.19ZM28.6849 168H26.6869V167.262C26.6869 167.118 26.6869 166.986 26.6869 166.866C26.6869 166.734 26.6869 166.59 26.6869 166.434C26.6029 166.65 26.4709 166.86 26.2909 167.064C26.1229 167.256 25.9189 167.43 25.6789 167.586C25.4269 167.754 25.1389 167.886 24.8149 167.982C24.5029 168.078 24.1669 168.126 23.8069 168.126C23.3029 168.126 22.8349 168.036 22.4029 167.856C21.9829 167.676 21.6109 167.424 21.2869 167.1C20.9629 166.776 20.7109 166.404 20.5309 165.984C20.3509 165.564 20.2609 165.108 20.2609 164.616C20.2609 164.148 20.3509 163.698 20.5309 163.266C20.7109 162.834 20.9629 162.456 21.2869 162.132C21.6109 161.82 21.9829 161.574 22.4029 161.394C22.8349 161.202 23.3029 161.106 23.8069 161.106C24.5149 161.106 25.1209 161.28 25.6249 161.628C26.1289 161.964 26.4829 162.366 26.6869 162.834C26.6869 162.582 26.6929 162.324 26.7049 162.06C26.7169 161.784 26.7349 161.514 26.7589 161.25H27.3529V167.298H28.6849V168ZM23.8069 161.826C23.3989 161.826 23.0209 161.898 22.6729 162.042C22.3249 162.186 22.0309 162.39 21.7909 162.654C21.5389 162.906 21.3409 163.2 21.1969 163.536C21.0649 163.872 20.9989 164.232 20.9989 164.616C20.9989 165.024 21.0769 165.402 21.2329 165.75C21.3889 166.098 21.6049 166.398 21.8809 166.65C22.1329 166.89 22.4209 167.076 22.7449 167.208C23.0689 167.34 23.4229 167.406 23.8069 167.406C24.1909 167.406 24.5509 167.34 24.8869 167.208C25.2229 167.064 25.5169 166.866 25.7689 166.614C26.0329 166.362 26.2369 166.068 26.3809 165.732C26.5369 165.384 26.6149 165.012 26.6149 164.616C26.6149 164.22 26.5369 163.854 26.3809 163.518C26.2369 163.17 26.0389 162.87 25.7869 162.618C25.5229 162.366 25.2229 162.174 24.8869 162.042C24.5509 161.898 24.1909 161.826 23.8069 161.826ZM35.7064 167.352C35.3944 167.592 35.0524 167.784 34.6804 167.928C34.3084 168.06 33.9064 168.126 33.4744 168.126C32.9824 168.126 32.5204 168.036 32.0884 167.856C31.6684 167.676 31.3024 167.424 30.9904 167.1C30.6544 166.788 30.3964 166.422 30.2164 166.002C30.0364 165.57 29.9464 165.108 29.9464 164.616C29.9464 164.136 30.0364 163.68 30.2164 163.248C30.3964 162.816 30.6484 162.444 30.9724 162.132C31.2964 161.82 31.6684 161.574 32.0884 161.394C32.5204 161.202 32.9824 161.106 33.4744 161.106C33.9064 161.106 34.3144 161.178 34.6984 161.322C35.0824 161.454 35.4244 161.64 35.7244 161.88V163.644H35.0404V162.312C34.8244 162.156 34.5844 162.036 34.3204 161.952C34.0564 161.868 33.7744 161.826 33.4744 161.826C33.0904 161.826 32.7304 161.898 32.3944 162.042C32.0584 162.174 31.7704 162.36 31.5304 162.6C31.2544 162.864 31.0444 163.17 30.9004 163.518C30.7564 163.854 30.6844 164.22 30.6844 164.616C30.6844 165.012 30.7564 165.384 30.9004 165.732C31.0444 166.068 31.2484 166.362 31.5124 166.614C31.7524 166.854 32.0404 167.046 32.3764 167.19C32.7244 167.334 33.0904 167.406 33.4744 167.406C33.8104 167.406 34.1284 167.352 34.4284 167.244C34.7284 167.136 34.9984 166.986 35.2384 166.794L35.7064 167.352ZM40.5057 161.826C40.0497 161.826 39.6297 161.922 39.2457 162.114C38.8737 162.306 38.5617 162.564 38.3097 162.888C38.0697 163.2 37.9017 163.554 37.8057 163.95C37.7097 164.334 37.7037 164.73 37.7877 165.138C38.6037 164.814 39.4137 164.496 40.2177 164.184C41.0337 163.86 41.8497 163.536 42.6657 163.212C42.4497 162.804 42.1497 162.474 41.7657 162.222C41.3937 161.958 40.9737 161.826 40.5057 161.826ZM42.8637 167.19C42.5517 167.478 42.1977 167.706 41.8017 167.874C41.4057 168.042 40.9737 168.126 40.5057 168.126C40.0137 168.126 39.5517 168.036 39.1197 167.856C38.6997 167.676 38.3277 167.424 38.0037 167.1C37.6797 166.776 37.4277 166.404 37.2477 165.984C37.0677 165.564 36.9777 165.108 36.9777 164.616C36.9777 164.136 37.0677 163.68 37.2477 163.248C37.4277 162.816 37.6797 162.444 38.0037 162.132C38.3277 161.82 38.6997 161.574 39.1197 161.394C39.5517 161.202 40.0137 161.106 40.5057 161.106C40.8777 161.106 41.2317 161.172 41.5677 161.304C41.9037 161.424 42.2037 161.604 42.4677 161.844C42.7197 162.06 42.9417 162.324 43.1337 162.636C43.3257 162.936 43.4817 163.266 43.6017 163.626C42.6657 163.998 41.7297 164.364 40.7937 164.724C39.8697 165.084 38.9397 165.456 38.0037 165.84C38.2197 166.308 38.5497 166.686 38.9937 166.974C39.4377 167.262 39.9417 167.406 40.5057 167.406C40.8777 167.406 41.2257 167.34 41.5497 167.208C41.8737 167.076 42.1617 166.89 42.4137 166.65L42.8637 167.19ZM46.417 167.406C46.417 167.574 46.357 167.718 46.237 167.838C46.117 167.946 45.985 168 45.841 168C45.685 168 45.547 167.946 45.427 167.838C45.307 167.718 45.247 167.574 45.247 167.406C45.247 167.25 45.307 167.118 45.427 167.01C45.547 166.89 45.685 166.83 45.841 166.83C45.985 166.83 46.117 166.89 46.237 167.01C46.357 167.118 46.417 167.25 46.417 167.406Z" fill="black"/>
<path d="M112.176 139.44C112.251 139.109 112.315 138.805 112.368 138.528C112.432 138.24 112.464 137.957 112.464 137.68C112.464 137.435 112.405 137.227 112.288 137.056C112.181 136.885 112.005 136.8 111.76 136.8C111.472 136.8 111.179 136.917 110.88 137.152C110.581 137.387 110.304 137.669 110.048 138C109.792 138.331 109.557 138.677 109.344 139.04C109.141 139.392 108.987 139.685 108.88 139.92L108.032 144H106.688L108.096 136.928L107.12 136.784L107.152 136.384C107.301 136.309 107.467 136.24 107.648 136.176C107.84 136.101 108.032 136.037 108.224 135.984C108.427 135.931 108.619 135.888 108.8 135.856C108.992 135.824 109.168 135.808 109.328 135.808L109.648 136L109.04 138.832H109.12C109.323 138.405 109.552 138.011 109.808 137.648C110.075 137.275 110.352 136.955 110.64 136.688C110.939 136.411 111.248 136.197 111.568 136.048C111.888 135.888 112.213 135.808 112.544 135.808C112.992 135.808 113.317 135.952 113.52 136.24C113.733 136.517 113.84 136.869 113.84 137.296C113.84 137.531 113.813 137.824 113.76 138.176C113.707 138.528 113.643 138.859 113.568 139.168L112.656 143.104H113.84V143.52C113.627 143.691 113.365 143.829 113.056 143.936C112.757 144.043 112.464 144.096 112.176 144.096C111.867 144.096 111.653 144.032 111.536 143.904C111.419 143.776 111.36 143.637 111.36 143.488C111.36 143.285 111.387 143.067 111.44 142.832C111.493 142.587 111.547 142.341 111.6 142.096L112.176 139.44ZM115.484 141.024C115.484 140.459 115.569 139.872 115.74 139.264C115.921 138.645 116.193 138.08 116.556 137.568C116.919 137.056 117.372 136.635 117.916 136.304C118.46 135.973 119.095 135.808 119.82 135.808C120.652 135.808 121.276 136.064 121.692 136.576C122.119 137.088 122.332 137.845 122.332 138.848C122.332 139.552 122.231 140.229 122.028 140.88C121.825 141.52 121.543 142.085 121.18 142.576C120.817 143.067 120.38 143.461 119.868 143.76C119.356 144.048 118.791 144.192 118.172 144.192C117.351 144.192 116.695 143.931 116.204 143.408C115.724 142.875 115.484 142.08 115.484 141.024ZM119.5 136.496C118.977 136.507 118.551 136.677 118.22 137.008C117.889 137.339 117.628 137.749 117.436 138.24C117.244 138.731 117.111 139.259 117.036 139.824C116.961 140.389 116.924 140.907 116.924 141.376C116.924 142.005 117.063 142.517 117.34 142.912C117.617 143.307 117.991 143.504 118.46 143.504C118.833 143.504 119.164 143.365 119.452 143.088C119.751 142.8 120.001 142.427 120.204 141.968C120.417 141.499 120.577 140.971 120.684 140.384C120.801 139.797 120.86 139.205 120.86 138.608C120.86 137.979 120.748 137.472 120.524 137.088C120.311 136.704 119.969 136.507 119.5 136.496ZM130.777 143.12V143.52C130.563 143.691 130.302 143.829 129.993 143.936C129.694 144.043 129.401 144.096 129.113 144.096C128.803 144.096 128.579 144.032 128.441 143.904C128.313 143.776 128.249 143.637 128.249 143.488C128.249 143.296 128.275 142.976 128.329 142.528C128.382 142.069 128.499 141.515 128.681 140.864H128.617C128.478 141.163 128.302 141.504 128.089 141.888C127.886 142.272 127.641 142.635 127.353 142.976C127.065 143.317 126.734 143.605 126.361 143.84C125.998 144.075 125.593 144.192 125.145 144.192C124.771 144.192 124.457 144.064 124.201 143.808C123.945 143.541 123.817 143.168 123.817 142.688C123.817 142.453 123.854 142.107 123.929 141.648C124.003 141.189 124.094 140.688 124.201 140.144C124.307 139.6 124.419 139.045 124.537 138.48C124.665 137.904 124.777 137.387 124.873 136.928L123.897 136.784V136.384C124.067 136.32 124.249 136.256 124.441 136.192C124.643 136.128 124.841 136.069 125.033 136.016C125.235 135.963 125.427 135.92 125.609 135.888C125.79 135.845 125.955 135.819 126.105 135.808L126.457 136C126.286 136.8 126.11 137.563 125.929 138.288C125.758 139.003 125.598 139.76 125.449 140.56C125.395 140.816 125.337 141.104 125.273 141.424C125.219 141.733 125.193 142.075 125.193 142.448C125.193 142.672 125.251 142.853 125.369 142.992C125.497 143.131 125.641 143.2 125.801 143.2C126.035 143.2 126.27 143.131 126.505 142.992C126.739 142.853 126.958 142.672 127.161 142.448C127.374 142.224 127.571 141.979 127.753 141.712C127.945 141.435 128.115 141.163 128.265 140.896C128.414 140.629 128.537 140.384 128.633 140.16C128.739 139.925 128.819 139.739 128.873 139.6L129.577 136H130.905L129.593 143.12H130.777ZM137.817 139.44C137.891 139.109 137.955 138.805 138.009 138.528C138.073 138.24 138.105 137.957 138.105 137.68C138.105 137.435 138.046 137.227 137.929 137.056C137.822 136.885 137.646 136.8 137.401 136.8C137.113 136.8 136.819 136.917 136.521 137.152C136.222 137.387 135.945 137.669 135.689 138C135.433 138.331 135.198 138.677 134.985 139.04C134.782 139.392 134.627 139.685 134.521 139.92L133.673 144H132.329L133.737 136.928L132.761 136.784L132.793 136.384C132.942 136.309 133.107 136.24 133.289 136.176C133.481 136.101 133.673 136.037 133.865 135.984C134.067 135.931 134.259 135.888 134.441 135.856C134.633 135.824 134.809 135.808 134.969 135.808L135.289 136L134.681 138.832H134.761C134.963 138.405 135.193 138.011 135.449 137.648C135.715 137.275 135.993 136.955 136.281 136.688C136.579 136.411 136.889 136.197 137.209 136.048C137.529 135.888 137.854 135.808 138.185 135.808C138.633 135.808 138.958 135.952 139.161 136.24C139.374 136.517 139.481 136.869 139.481 137.296C139.481 137.531 139.454 137.824 139.401 138.176C139.347 138.528 139.283 138.859 139.209 139.168L138.297 143.104H139.481V143.52C139.267 143.691 139.006 143.829 138.697 143.936C138.398 144.043 138.105 144.096 137.817 144.096C137.507 144.096 137.294 144.032 137.177 143.904C137.059 143.776 137.001 143.637 137.001 143.488C137.001 143.285 137.027 143.067 137.081 142.832C137.134 142.587 137.187 142.341 137.241 142.096L137.817 139.44Z" fill="black"/>
</svg>
